<?xml version="1.0" standalone="no"?><!DOCTYPE svg PUBLIC "-//W3C//DTD SVG 1.1//EN" "http://www.w3.org/Graphics/SVG/1.1/DTD/svg11.dtd"><svg t="1649920899250" class="icon" viewBox="0 0 1024 1024" version="1.1" xmlns="http://www.w3.org/2000/svg" p-id="22310" xmlns:xlink="http://www.w3.org/1999/xlink" width="200" height="200"><defs><style type="text/css">@font-face { font-family: feedback-iconfont; src: url("//at.alicdn.com/t/font_1031158_u69w8yhxdu.woff2?t=1630033759944") format("woff2"), url("//at.alicdn.com/t/font_1031158_u69w8yhxdu.woff?t=1630033759944") format("woff"), url("//at.alicdn.com/t/font_1031158_u69w8yhxdu.ttf?t=1630033759944") format("truetype"); }
</style></defs><path d="M167.296 725.354667C238.762667 840.597333 366.421333 917.333333 512 917.333333c145.578667 0 273.216-76.736 344.704-191.978666h49.322667C830.208 865.109333 682.176 960 512 960c-170.176 0-318.208-94.890667-394.026667-234.666667l49.322667 0.021334zM512 810.666667l13.184 28.096 29.482667 4.48-21.333334 21.888 5.034667 30.869333L512 881.429333 485.632 896 490.666667 865.130667l-21.333334-21.866667 29.482667-4.501333L512 810.666667z m-147.626667-37.290667l0.384 30.549333 25.386667 18.261334-28.949333 8.341333-8.32 28.949333-18.282667-25.386666-30.549333-0.384 17.664-24.021334-10.538667-29.184 29.184 10.538667 24.021333-17.664z m295.253334 0l24.021333 17.664 29.184-10.538667-10.538667 29.184 17.664 24.021334-30.549333 0.384-18.261333 25.386666-8.341334-28.949333-28.949333-8.32 25.386667-18.282667 0.384-30.549333zM609.877333 725.333333h79.317334A276.202667 276.202667 0 0 1 512 789.333333a276.202667 276.202667 0 0 1-177.173333-63.978666h79.296c29.802667 13.674667 62.933333 21.312 97.877333 21.312a233.813333 233.813333 0 0 0 97.877333-21.333334zM960 320a42.666667 42.666667 0 0 1 42.666667 42.666667v298.666666a42.666667 42.666667 0 0 1-42.666667 42.666667H64a42.666667 42.666667 0 0 1-42.666667-42.666667V362.666667a42.666667 42.666667 0 0 1 42.666667-42.666667h896z m0 42.666667H64v298.666666h896V362.666667z m-177.578667 32l23.68 2.773333c-2.005333 12.650667-4.266667 24.277333-6.784 35.157333h70.570667v23.253334h-14.122667c-1.493333 42.496-10.325333 78.912-26.218666 108.757333A188.693333 188.693333 0 0 0 874.666667 606.570667l-13.098667 22.762666a177.770667 177.770667 0 0 1-45.632-43.242666 185.109333 185.109333 0 0 1-45.610667 42.986666l-13.098666-21.248a142.613333 142.613333 0 0 0 45.098666-42.453333c-11.84-20.757333-20.394667-44.010667-25.941333-69.802667-4.544 7.317333-9.088 13.653333-14.122667 18.965334l-14.122666-18.218667c18.154667-24.021333 29.504-57.898667 34.282666-101.653333z m-73.088 47.296v78.122666c-0.490667 29.333333-5.034667 53.12-13.610666 70.826667-8.554667 16.426667-21.930667 29.056-40.576 38.186667l-13.098667-20.757334c17.642667-8.597333 29.482667-19.712 36.053333-32.853333 6.037333-14.186667 9.557333-32.64 10.325334-55.402667v-78.122666h20.906666z m9.6 128.448c13.845333 13.653333 25.429333 27.306667 35.008 40.469333l-17.642666 17.706667c-7.808-13.162667-18.901333-27.584-33.28-43.008z m-201.130666-174.976v42.453333h82.410666v23.530667h-82.410666v12.16c-0.512 11.093333-1.514667 21.738667-3.029334 31.850666h101.824v23.253334h-90.24c12.096 33.386667 43.349333 59.690667 93.504 78.656l-13.098666 20.992c-52.416-22.762667-85.44-53.354667-99.541334-91.541334a148.266667 148.266667 0 0 1-18.666666 37.418667c-17.386667 23.253333-45.866667 41.472-85.184 54.122667l-12.842667-20.245334c39.317333-13.397333 66.026667-30.08 80.149333-50.325333 5.546667-8.832 10.069333-18.453333 13.589334-29.077333h-89.706667v-23.253334h95.509333c1.770667-10.112 3.029333-20.736 3.541334-31.872v-12.138666h-55.701334a172.309333 172.309333 0 0 1-28.224 35.669333l-20.416-17.706667c22.421333-19.733333 39.04-46.016 49.898667-78.890666l22.421333 9.088c-3.52 10.112-7.296 19.733333-11.328 28.330666h43.349334v-42.474666h24.192z m-177.685334 11.626666v106.197334H183.850667v69.546666c0 9.6 4.8 14.421333 14.378666 14.421334h125.76a18.666667 18.666667 0 0 0 12.352-4.565334c4.032-3.797333 6.549333-18.965333 8.064-45.504l23.445334 7.573334c-3.029333 31.872-7.317333 50.837333-12.608 56.64-6.058667 5.568-14.122667 8.597333-24.448 9.109333H191.68c-21.418667 0-32-11.114667-32-33.386667v-131.477333h24.170667v34.645333h131.84v-60.202666H149.333333v-22.997334h190.784z m407.274667-3.285333v160.832h-21.674667v-138.837333h-54.186666v138.837333H649.6v-160.853333h97.792z m85.952 52.096h-40.32c-0.768 2.517333-1.536 4.8-2.282667 7.061333 3.52 30.357333 11.584 56.661333 24.192 79.402667 11.093333-24.768 17.130667-53.610667 18.410667-86.464zM512 234.666667c67.392 0 129.152 24.042667 177.216 64H609.92A233.813333 233.813333 0 0 0 512 277.333333a233.813333 233.813333 0 0 0-97.92 21.333334h-79.274667c48.042667-39.978667 109.802667-64 177.194667-64z m0-170.666667c170.197333 0 318.208 94.890667 394.026667 234.666667H856.746667C785.258667 183.424 657.578667 106.666667 512 106.666667c-145.578667 0-273.237333 76.757333-344.725333 192H117.973333C193.792 158.890667 341.802667 64 512 64z m-193.706667 122.709333l24.021334 17.664 29.184-10.538666-10.538667 29.184 17.664 24.021333-30.549333 0.384-18.261334 25.386667-8.341333-28.949334-28.949333-8.32 25.386666-18.282666 0.384-30.549334z m387.413334 0l0.384 30.549334 25.386666 18.261333-28.949333 8.341333-8.32 28.949334-18.282667-25.386667-30.549333-0.384 17.664-24.021333-10.538667-29.184 29.184 10.538666 24.021334-17.664zM512 128l13.184 28.096 29.482667 4.48-21.333334 21.888 5.034667 30.869333L512 198.762667 485.632 213.333333 490.666667 182.464l-21.333334-21.866667 29.482667-4.501333L512 128z" fill="#d81e06" p-id="22311"></path></svg>