<?xml version="1.0" standalone="no"?><!DOCTYPE svg PUBLIC "-//W3C//DTD SVG 1.1//EN" "http://www.w3.org/Graphics/SVG/1.1/DTD/svg11.dtd"><svg t="1650439188246" class="icon" viewBox="0 0 1024 1024" version="1.1" xmlns="http://www.w3.org/2000/svg" p-id="13329" xmlns:xlink="http://www.w3.org/1999/xlink" width="200" height="200"><defs><style type="text/css">@font-face { font-family: feedback-iconfont; src: url("//at.alicdn.com/t/font_1031158_u69w8yhxdu.woff2?t=1630033759944") format("woff2"), url("//at.alicdn.com/t/font_1031158_u69w8yhxdu.woff?t=1630033759944") format("woff"), url("//at.alicdn.com/t/font_1031158_u69w8yhxdu.ttf?t=1630033759944") format("truetype"); }
</style></defs><path d="M791.4 252.1l214 214c25 25 25 65.5 0 90.5l-215 215c-1.6 1.6-4.1 1.6-5.7 0L745.1 732c-1.6-1.6-1.6-4.1 0-5.7l175.7-175.7c2.5-2.5 0.7-6.8-2.8-6.8H4c-2.2 0-4-1.8-4-4v-56c0-2.2 1.8-4 4-4H919.1c3.6 0 5.3-4.3 2.8-6.8L746.2 297.3c-1.6-1.6-1.6-4.1 0-5.7l39.6-39.6c1.5-1.5 4.1-1.5 5.6 0.1z" p-id="13330" fill="#ffffff"></path></svg>